
<svg xmlns="http://www.w3.org/2000/svg" xmlns:xlink="http://www.w3.org/1999/xlink" viewBox="0 0 20 20" width="20" height="20" fill="none">
  <svg xmlns="http://www.w3.org/2000/svg" viewBox="0 0 384 512" width="20" height="20" fill="#7c7c7c" x="0" y="0" opacity="100%">
    <path d="M192 352c53.03 0 96-42.97 96-96v-160c0-53.03-42.97-96-96-96s-96 42.97-96 96v160C96 309 138.1 352 192 352zM344 192C330.7 192 320 202.7 320 215.1V256c0 73.33-61.97 132.4-136.3 127.7c-66.08-4.169-119.7-66.59-119.7-132.8L64 215.1C64 202.7 53.25 192 40 192S16 202.7 16 215.1v32.15c0 89.66 63.97 169.6 152 181.7V464H128c-18.19 0-32.84 15.18-31.96 33.57C96.43 505.8 103.8 512 112 512h160c8.222 0 15.57-6.216 15.96-14.43C288.8 479.2 274.2 464 256 464h-40v-33.77C301.7 418.5 368 344.9 368 256V215.1C368 202.7 357.3 192 344 192z"></path>
  </svg>
  <defs>
    <filter id="filter_dshadow_0_0_0_00000014" color-interpolation-filters="sRGB" filterUnits="userSpaceOnUse">
      <feFlood flood-opacity="0" result="bg-fix"></feFlood>
      <feColorMatrix in="SourceAlpha" type="matrix" values="0 0 0 0 0 0 0 0 0 0 0 0 0 0 0 0 0 0 127 0" result="alpha"></feColorMatrix>
      <feOffset dx="0" dy="0"></feOffset>
      <feGaussianBlur stdDeviation="0"></feGaussianBlur>
      <feComposite in2="alpha" operator="out"></feComposite>
      <feColorMatrix type="matrix" values="0 0 0 0 0 0 0 0 0 0 0 0 0 0 0 0 0 0 0.08 0"></feColorMatrix>
      <feBlend mode="normal" in2="bg-fix" result="bg-fix-filter_dshadow_0_0_0_00000014"></feBlend>
      <feBlend in="SourceGraphic" in2="bg-fix-filter_dshadow_0_0_0_00000014" result="shape"></feBlend>
    </filter>
  </defs>
</svg>